<?xml version="1.0" encoding="UTF-8"?>
<svg xmlns="http://www.w3.org/2000/svg" id="Layer_1" data-name="Layer 1" viewBox="0 0 24 24">
  <path d="M12,23.949c-.077,0-.153-.018-.224-.053l-.425-.212c-2.194-1.098-9.354-5.191-9.354-11.8l.002-5.346c0-1.943,1.239-3.66,3.084-4.271L11.843,.025c.102-.034,.213-.034,.314,0l6.759,2.241c1.845,.612,3.084,2.329,3.084,4.271l-.003,5.346c0,7.498-7.172,10.967-9.37,11.852l-.441,.177c-.06,.024-.124,.036-.187,.036ZM12,1.027L5.398,3.216c-1.435,.476-2.398,1.811-2.398,3.322l-.002,5.346c0,6.035,6.736,9.874,8.801,10.906l.224,.112,.232-.093c2.051-.825,8.743-4.052,8.743-10.924l.003-5.346c0-1.511-.964-2.846-2.398-3.322L12,1.027Z"/>
  <path d="M10.981,15c-.641,0-1.282-.244-1.77-.732l-3.056-2.905c-.2-.19-.208-.507-.018-.707,.19-.199,.506-.208,.707-.018l3.065,2.914c.594,.593,1.545,.594,2.13,.009l5.612-5.42c.2-.191,.517-.185,.707,.013,.192,.198,.187,.515-.012,.707l-5.607,5.414c-.483,.483-1.121,.726-1.759,.726Z"/>
</svg>
